# xmcd
#
# Track frame offsets: 
#        150
#        20225
#        36398
#        58285
#        72724
#        92237
#        104976
#        121126
#        144774
#        167524
#        184173
#        206273
#        224914
#        242214
#        260040
#        272468
#        287456
#        306169
#
# Disc length: 4370 seconds
#
# Revision: 4
# Processed by: cddbd v1.5.2PL0 Copyright (c) Steve Scherf et al.
# Submitted via: ExactAudioCopy v1.0b6
#
DISCID=24111012
DTITLE=Various Artists ("Compilation") - Romantic Collection More Gold
DTITLE=[CD 1]
DYEAR=2000
DGENRE=Ballad, Pop, Rpck
TTITLE0=Moody Blues - Light In White Satin
TTITLE1=Chris De Burg - Midnight In Vodka
TTITLE2=Tanita Tikaram - Twist In My Sobriety
TTITLE3=Styx - Boat On The River
TTITLE4=Scorpions - White Dove
TTITLE5=E. Moriccone - For A Few Dollars More
TTITLE6=Mike Oldfield - Moonlight Shadow
TTITLE7=Richard Marx - Hazard
TTITLE8=Chris Rea - Lookin For The Summer
TTITLE9=Patricia Kaas - Quand Jimmy Dit
TTITLE10=Sam Brown - Stop!
TTITLE11=The Alan Parsons Project - I Am Mirror
TTITLE12=Ricky King - Exodus
TTITLE13=Demis Russos - Goodbye My Love Goodbye
TTITLE14=Rare Bird - Sympathy
TTITLE15=Kelly Familiy - Father's Nose
TTITLE16=Paul Mc'Cartney - Bip Bop
TTITLE17=London Symphonic Orchestra - Light In White Satin
EXTD=
EXTT0=
EXTT1=
EXTT2=
EXTT3=
EXTT4=
EXTT5=
EXTT6=
EXTT7=
EXTT8=
EXTT9=
EXTT10=
EXTT11=
EXTT12=
EXTT13=
EXTT14=
EXTT15=
EXTT16=
EXTT17=
PLAYORDER=
